<?xml version="1.0" encoding="UTF-8" standalone="no"?>
<!-- Created with Inkscape (http://www.inkscape.org/) -->

<svg
   width="63.854073mm"
   height="80.232224mm"
   viewBox="0 0 63.854073 80.232224"
   version="1.1"
   id="svg1475"
   inkscape:version="1.1.1 (eb90963e84, 2021-10-02)"
   sodipodi:docname="logos.svg"
   xmlns:inkscape="http://www.inkscape.org/namespaces/inkscape"
   xmlns:sodipodi="http://sodipodi.sourceforge.net/DTD/sodipodi-0.dtd"
   xmlns="http://www.w3.org/2000/svg"
   xmlns:svg="http://www.w3.org/2000/svg">
  <sodipodi:namedview
     id="namedview1477"
     pagecolor="#ffffff"
     bordercolor="#666666"
     borderopacity="1.0"
     inkscape:pageshadow="2"
     inkscape:pageopacity="0.0"
     inkscape:pagecheckerboard="0"
     inkscape:document-units="mm"
     showgrid="false"
     inkscape:zoom="0.75187991"
     inkscape:cx="137.65496"
     inkscape:cy="196.17494"
     inkscape:window-width="1848"
     inkscape:window-height="1016"
     inkscape:window-x="72"
     inkscape:window-y="27"
     inkscape:window-maximized="1"
     inkscape:current-layer="layer1" />
  <defs
     id="defs1472" />
  <g
     inkscape:label="Layer 1"
     inkscape:groupmode="layer"
     id="layer1"
     transform="translate(-68.495859,-96.699905)">
    <path
       style="fill:#008080;stroke-width:0.351896"
       d="m 77.682915,173.67711 c -1.34063,-8.07926 -1.542253,-11.4486 -0.891442,-14.89688 1.077492,-5.70897 3.568139,-7.88837 9.014968,-7.88837 4.277212,0 7.017774,0.9779 11.958473,4.26705 5.516596,3.67254 10.096636,5.23414 15.351286,5.23414 4.89791,0 5.94741,-0.74271 6.92112,-4.89793 0.46609,-1.98897 0.31644,-4.13651 -0.8725,-12.52091 -0.57516,-4.05598 -1.31323,-9.44756 -2.11957,-15.48341 -0.31028,-2.32251 -0.83371,-5.8717 -1.1632,-7.88709 l -0.59906,-3.66433 -2.46327,-1.36769 c -1.3548,-0.75223 -4.68021,-2.45106 -7.38981,-3.77516 -8.238028,-4.02569 -13.399485,-5.6298 -18.156627,-5.64283 -2.975049,-0.008 -3.045711,0.0117 -4.270261,1.201 -2.204442,2.14093 -2.543702,6.35314 -1.149662,14.27413 0.289528,1.64511 0.526629,3.19289 0.526896,3.43949 2.65e-4,0.34924 -1.30134,0.42705 -5.886926,0.3519 l -5.887405,-0.0965 -0.414044,-2.81517 c -0.227724,-1.54834 -0.698148,-4.7154 -1.045387,-7.03791 -0.347239,-2.32251 -0.639061,-5.97545 -0.648491,-8.11764 -0.01619,-3.67717 0.03714,-3.97702 0.954122,-5.36424 0.534199,-0.80814 1.583322,-1.85572 2.331381,-2.327951 1.442228,-0.91044 5.77093,-1.960904 8.080388,-1.960904 2.175396,0 8.618466,1.423252 12.721818,2.810206 5.137753,1.736579 16.344398,6.331099 19.836398,8.132559 0.74903,0.3864 1.43973,0.62471 1.53488,0.52955 0.16235,-0.16234 -0.23819,-3.61941 -0.98598,-8.510027 -0.17998,-1.177107 -0.32724,-2.328997 -0.32724,-2.559751 0,-0.311915 1.50821,-0.394801 5.87868,-0.323072 l 5.87867,0.09648 0.42212,2.639218 c 0.23216,1.451572 0.68018,4.539452 0.9956,6.861962 0.31541,2.32252 0.80547,5.58241 1.08902,7.24422 0.28354,1.66181 0.51553,3.46921 0.51553,4.01645 0,0.54724 0.23062,2.35463 0.51249,4.01644 0.28186,1.66181 0.76233,4.84253 1.06769,7.06827 0.68751,5.01118 1.38489,9.95647 2.08421,14.77962 1.06176,7.323 1.26215,9.2221 1.26215,11.96151 0,5.20594 -1.03956,8.49821 -3.41381,10.81148 -2.07258,2.01935 -3.462,2.34068 -9.12441,2.11024 -6.00312,-0.24432 -8.36033,-0.90149 -15.43749,-4.30386 -6.795329,-3.26689 -12.988754,-4.72927 -14.551568,-3.43591 -1.206164,0.9982 -1.468591,3.46369 -0.907981,8.53043 0.468976,4.2386 0.706855,5.8087 1.08181,7.14039 0.160239,0.56912 -0.279604,0.61582 -5.800027,0.61582 h -5.973416 z"
       id="path1528" />
  </g>
</svg>
