<?xml version="1.0" encoding="UTF-8" standalone="no"?>
<!-- Created with Inkscape (http://www.inkscape.org/) -->

<svg
   width="150mm"
   height="150mm"
   viewBox="0 0 150 150"
   version="1.1"
   id="svg1325"
   inkscape:version="1.1.1 (eb90963e84, 2021-10-02)"
   sodipodi:docname="logo.svg"
   xmlns:inkscape="http://www.inkscape.org/namespaces/inkscape"
   xmlns:sodipodi="http://sodipodi.sourceforge.net/DTD/sodipodi-0.dtd"
   xmlns="http://www.w3.org/2000/svg"
   xmlns:svg="http://www.w3.org/2000/svg">
  <sodipodi:namedview
     id="namedview1327"
     pagecolor="#ffffff"
     bordercolor="#666666"
     borderopacity="1.0"
     inkscape:pageshadow="2"
     inkscape:pageopacity="0.0"
     inkscape:pagecheckerboard="0"
     inkscape:document-units="mm"
     showgrid="false"
     inkscape:zoom="0.75187991"
     inkscape:cx="-23.274993"
     inkscape:cy="399.66489"
     inkscape:window-width="1848"
     inkscape:window-height="1016"
     inkscape:window-x="72"
     inkscape:window-y="27"
     inkscape:window-maximized="1"
     inkscape:current-layer="layer1" />
  <defs
     id="defs1322" />
  <g
     inkscape:label="Layer 1"
     inkscape:groupmode="layer"
     id="layer1"
     transform="translate(-31.523188,-42.84527)">
    <path
       style="fill:#008080;stroke-width:0.386897"
       d="m 96.52168,192.47036 c -3.23129,-0.3795 -7.91434,-1.24331 -10.79975,-1.9921 -1.09997,-0.28543 -2.35994,-0.59801 -2.79993,-0.69461 -1.02021,-0.22397 -3.204498,-0.94839 -4.999886,-1.65824 -0.769975,-0.30443 -1.93995,-0.76292 -2.59995,-1.01886 -0.659987,-0.25596 -2.099937,-0.90424 -3.199912,-1.44062 -1.099988,-0.5364 -2.494938,-1.1628 -3.099938,-1.39202 -0.604987,-0.22922 -1.099975,-0.5687 -1.099975,-0.7544 0,-0.18568 -0.198887,-0.33762 -0.441975,-0.33762 -0.243087,0 -1.242088,-0.50521 -2.22,-1.12269 -0.977913,-0.61747 -1.934,-1.12269 -2.124625,-1.12269 -0.190638,0 -0.406613,-0.12623 -0.479938,-0.28067 -0.07337,-0.15428 -0.853312,-0.78306 -1.733287,-1.39709 -2.577775,-1.79872 -3.365463,-2.45282 -6.992788,-5.80686 -4.01655,-3.71393 -6.8069,-6.63854 -6.8069,-7.1344 0,-0.19263 -0.1539,-0.3502 -0.341975,-0.3502 -0.759213,0 -6.7235,-9.14453 -8.542888,-13.09809 -0.331512,-0.72037 -0.803375,-1.7308 -1.048575,-2.24539 -3.33805,-7.00504 -5.6662,-18.42043 -5.6662,-27.78249 0,-5.83622 1.378425,-13.71877 3.046,-17.41855 0.304663,-0.67593 0.553913,-1.49195 0.553913,-1.81342 0,-0.32145 0.250587,-1.03146 0.556862,-1.57777 0.306275,-0.54634 0.8707,-1.75115 1.2543,-2.677358 0.383588,-0.92621 0.958975,-2.27345 1.27865,-2.99385 0.851688,-1.91935 4.270413,-8.38906 4.548263,-8.6073 0.311225,-0.24444 1.407862,-2.157 1.984825,-3.46164 0.5164,-1.16767 1.029675,-1.26154 2.6444,-0.48355 0.946225,0.45589 6.62435,3.03928 20.834301,9.47899 1.969562,0.89259 2.068437,1.002 1.565712,1.73245 -0.295137,0.42885 -0.641012,1.11652 -0.768612,1.52817 -0.127588,0.41167 -0.614788,1.67468 -1.082638,2.80673 -1.234388,2.986828 -2.422,6.009358 -2.86735,7.297508 -1.727875,4.99781 -3.120725,12.1627 -3.128275,16.09191 -0.005,2.61013 0.975712,10.80365 1.363387,11.39054 0.14525,0.21986 0.414588,1.19921 0.59855,2.17632 0.535,2.8417 1.229113,4.52229 4.443276,10.75813 2.065287,4.0069 3.463162,6.23287 4.073487,6.48667 0.164988,0.0685 0.299988,0.29191 0.299988,0.49621 0,1.29708 7.801813,9.187 11.226533,11.35338 0.97524,0.6169 1.86317,1.2086 1.97317,1.3149 0.30133,0.29119 4.80467,2.3305 6.39985,2.89814 4.98549,1.77407 7.24431,2.09255 14.79966,2.08676 5.85643,-0.004 7.77525,-0.13393 9.19979,-0.62071 0.98998,-0.33829 2.08491,-0.61748 2.43319,-0.62048 1.18405,-0.0113 6.56607,-2.43135 9.57156,-4.30587 4.51264,-2.81453 7.51839,-5.74544 12.68785,-12.3719 1.94426,-2.49224 6.21271,-11.17336 7.44289,-15.13728 3.36269,-10.83527 3.82929,-23.50172 1.22005,-33.11942 -1.6253,-5.990898 -4.05239,-11.349248 -7.00074,-15.455788 -0.63546,-0.88507 -1.15537,-1.76918 -1.15537,-1.96471 0,-0.1955 -0.15609,-0.35546 -0.34684,-0.35546 -0.19078,0 -0.83384,-0.6885 -1.42904,-1.52996 -1.58712,-2.24387 -7.94199,-8.07425 -11.62382,-10.66448 -4.43658,-3.121216 -7.94019,-5.119963 -13.99968,-7.986576 l -5.19989,-2.459942 -33.699213,-0.09985 -33.699226,-0.09985 V 53.878851 42.84527 h 66.598479 66.59844 v 10.852698 10.85268 h -11.19974 c -6.22951,0 -11.19974,0.146933 -11.19974,0.331188 0,0.18211 0.44405,0.603402 0.98677,0.936112 0.54272,0.332691 1.5389,1.109886 2.21373,1.727083 0.67484,0.617179 1.29925,1.122161 1.38755,1.122161 0.25405,0 7.81167,7.13398 7.81167,7.3738 0,0.11854 0.24386,0.40238 0.5419,0.6309 0.7217,0.55337 5.45796,6.47103 5.45796,6.8194 0,0.15024 0.26186,0.54403 0.58192,0.8749 1.13149,1.16978 5.31288,9.23263 6.51123,12.55542 3.01891,8.370988 3.71237,12.602778 3.71006,22.640958 -0.001,8.22848 -0.32737,11.13615 -2.01157,17.96921 -1.70697,6.92532 -4.78064,14.271 -8.5321,20.39056 -0.91927,1.49951 -5.7922,8.30344 -6.3186,8.82247 -0.29744,0.29324 -1.24752,1.37498 -2.1113,2.40383 -0.86379,1.02886 -2.07875,2.32425 -2.69994,2.87869 -0.62118,0.55442 -1.12941,1.11325 -1.12941,1.24186 0,1.02655 -13.41995,11.03529 -14.79638,11.03529 -0.19037,0 -0.584,0.21051 -0.87469,0.46778 -1.38682,1.22739 -9.82861,4.51018 -14.52825,5.64967 -4.79032,1.1615 -7.67016,1.69656 -11.24507,2.08935 -4.22205,0.46388 -16.66448,0.43928 -20.75419,-0.041 z"
       id="path473"
       inkscape:export-filename="/home/avto/Pictures/fico.png"
       inkscape:export-xdpi="96"
       inkscape:export-ydpi="96" />
  </g>
</svg>
